<?xml version="1.0" encoding="UTF-8" standalone="no"?>
<svg
   xmlns:dc="http://purl.org/dc/elements/1.1/"
   xmlns:cc="http://creativecommons.org/ns#"
   xmlns:rdf="http://www.w3.org/1999/02/22-rdf-syntax-ns#"
   xmlns:svg="http://www.w3.org/2000/svg"
   xmlns="http://www.w3.org/2000/svg"
   xmlns:sodipodi="http://sodipodi.sourceforge.net/DTD/sodipodi-0.dtd"
   xmlns:inkscape="http://www.inkscape.org/namespaces/inkscape"
   height="128"
   width="96"
   version="1.1"
   id="svg4"
   sodipodi:docname="steps.svg"
   inkscape:version="0.92.3 (2405546, 2018-03-11)">
  <metadata
     id="metadata10">
    <rdf:RDF>
      <cc:Work
         rdf:about="">
        <dc:format>image/svg+xml</dc:format>
        <dc:type
           rdf:resource="http://purl.org/dc/dcmitype/StillImage" />
        <dc:title></dc:title>
      </cc:Work>
    </rdf:RDF>
  </metadata>
  <defs
     id="defs8">
    <clipPath
       clipPathUnits="userSpaceOnUse"
       id="clipPath824">
      <g
         id="use826"
         inkscape:label="Clip">
        <path
           style="stroke-width:0.14285715"
           inkscape:connector-curvature="0"
           id="path828"
           d="m 206.96767,-13.375948 c -10.73,0 -19.42857,14.32713945 -19.42857,31.999996 0,9.832858 2.43143,20.262858 4.85714,36.362858 1.9,12.612858 6.52429,23.065715 14.57143,23.065715 8.04715,0 13.44,-6.97 13.44,-19.71 0,-4.338572 -3.56714,-11.25 -3.72571,-17.147143 -0.28857,-10.637144 7.13286,-14.881429 7.13286,-24.714287 0,-17.6728565 -6.11858,-29.857139 -16.84715,-29.857139 z m 52.42429,36.571425 c -10.72857,0 -16.84714,12.184286 -16.84714,29.857144 0,9.832857 7.42143,14.077143 7.13285,24.714286 -0.15843,5.897143 -3.72571,12.808573 -3.72571,17.147143 0,12.74 5.39286,19.71 13.44,19.71 8.04714,0 12.67143,-10.45286 14.57143,-23.06571 2.42571,-16.100004 4.85714,-26.530005 4.85714,-36.362862 0,-17.672858 -8.69857,-32.000001 -19.42857,-32.000001 z" />
      </g>
    </clipPath>
  </defs>
  <sodipodi:namedview
     pagecolor="#ffffff"
     bordercolor="#666666"
     borderopacity="1"
     objecttolerance="10"
     gridtolerance="10"
     guidetolerance="10"
     inkscape:pageopacity="0"
     inkscape:pageshadow="2"
     inkscape:window-width="1920"
     inkscape:window-height="1146"
     id="namedview6"
     showgrid="false"
     inkscape:zoom="2.6074563"
     inkscape:cx="85.450168"
     inkscape:cy="132.58282"
     inkscape:window-x="0"
     inkscape:window-y="28"
     inkscape:window-maximized="1"
     inkscape:current-layer="svg4" />
  <path
     d="M 21.729668,1.23e-6 C 10.999666,1.23e-6 2.3010931,14.327141 2.3010931,31.999998 c 0,9.832858 2.4314279,20.262858 4.8571429,36.362858 1.9,12.612858 6.524289,23.065715 14.571432,23.065715 8.047143,0 13.44,-6.97 13.44,-19.71 0,-4.338572 -3.567143,-11.25 -3.725714,-17.147143 C 31.155382,43.934284 38.576811,39.689999 38.576811,29.857141 38.576811,12.184284 32.458239,1.23e-6 21.729668,1.23e-6 Z M 74.153952,36.571427 c -10.728568,0 -16.84714,12.184286 -16.84714,29.857144 0,9.832857 7.421429,14.077143 7.132857,24.714286 C 64.28124,97.04 60.713955,103.95143 60.713955,108.29 c 0,12.74 5.392857,19.71 13.439997,19.71 8.047143,0 12.671434,-10.45286 14.571434,-23.06571 2.42571,-16.100004 4.85714,-26.530005 4.85714,-36.362862 0,-17.672858 -8.69857,-32.000001 -19.428574,-32.000001 z"
     id="path2"
     inkscape:connector-curvature="0"
     style="stroke-width:0.14285715"
     inkscape:export-xdpi="96"
     inkscape:export-ydpi="96" />
</svg>
