<?xml version="1.0" encoding="UTF-8" standalone="no"?>
<!-- Created with Inkscape (http://www.inkscape.org/) -->

<svg
   xmlns:dc="http://purl.org/dc/elements/1.1/"
   xmlns:cc="http://creativecommons.org/ns#"
   xmlns:rdf="http://www.w3.org/1999/02/22-rdf-syntax-ns#"
   xmlns:svg="http://www.w3.org/2000/svg"
   xmlns="http://www.w3.org/2000/svg"
   xmlns:sodipodi="http://sodipodi.sourceforge.net/DTD/sodipodi-0.dtd"
   xmlns:inkscape="http://www.inkscape.org/namespaces/inkscape"
   version="1.1"
   id="svg2"
   width="128"
   height="128"
   viewBox="0 0 128 128"
   sodipodi:docname="timer.svg"
   inkscape:version="0.92.3 (2405546, 2018-03-11)"
   inkscape:export-filename="/home/takashi/Dropbox/samurai-2018/editor/icons/timer.png"
   inkscape:export-xdpi="96"
   inkscape:export-ydpi="96">
  <metadata
     id="metadata8">
    <rdf:RDF>
      <cc:Work
         rdf:about="">
        <dc:format>image/svg+xml</dc:format>
        <dc:type
           rdf:resource="http://purl.org/dc/dcmitype/StillImage" />
        <dc:title></dc:title>
      </cc:Work>
    </rdf:RDF>
  </metadata>
  <defs
     id="defs6">
    <inkscape:path-effect
       only_selected="false"
       apply_with_weight="true"
       apply_no_weight="true"
       helper_size="0"
       steps="2"
       weight="33.333333"
       is_visible="true"
       id="path-effect869"
       effect="bspline" />
    <inkscape:path-effect
       effect="bspline"
       id="path-effect839"
       is_visible="true"
       weight="33.333333"
       steps="2"
       helper_size="0"
       apply_no_weight="true"
       apply_with_weight="true"
       only_selected="false" />
    <inkscape:path-effect
       effect="bspline"
       id="path-effect835"
       is_visible="true"
       weight="33.333333"
       steps="2"
       helper_size="0"
       apply_no_weight="true"
       apply_with_weight="true"
       only_selected="false" />
    <inkscape:path-effect
       effect="bspline"
       id="path-effect831"
       is_visible="true"
       weight="33.333333"
       steps="2"
       helper_size="0"
       apply_no_weight="true"
       apply_with_weight="true"
       only_selected="false" />
    <inkscape:path-effect
       only_selected="false"
       apply_with_weight="true"
       apply_no_weight="true"
       helper_size="0"
       steps="2"
       weight="33.333333"
       is_visible="true"
       id="path-effect830"
       effect="bspline" />
    <inkscape:path-effect
       only_selected="false"
       apply_with_weight="true"
       apply_no_weight="true"
       helper_size="0"
       steps="2"
       weight="33.333333"
       is_visible="true"
       id="path-effect826"
       effect="bspline" />
    <inkscape:path-effect
       only_selected="false"
       apply_with_weight="true"
       apply_no_weight="true"
       helper_size="0"
       steps="2"
       weight="33.333333"
       is_visible="true"
       id="path-effect822"
       effect="bspline" />
    <inkscape:path-effect
       only_selected="false"
       apply_with_weight="true"
       apply_no_weight="true"
       helper_size="0"
       steps="2"
       weight="33.333333"
       is_visible="true"
       id="path-effect4552"
       effect="bspline" />
    <inkscape:path-effect
       effect="bspline"
       id="path-effect4547"
       is_visible="true"
       weight="33.333333"
       steps="2"
       helper_size="0"
       apply_no_weight="true"
       apply_with_weight="true"
       only_selected="false" />
    <inkscape:path-effect
       only_selected="false"
       apply_with_weight="true"
       apply_no_weight="true"
       helper_size="0"
       steps="2"
       weight="33.333333"
       is_visible="true"
       id="path-effect4544"
       effect="bspline" />
    <inkscape:path-effect
       only_selected="false"
       apply_with_weight="true"
       apply_no_weight="true"
       helper_size="0"
       steps="2"
       weight="33.333333"
       is_visible="true"
       id="path-effect4532"
       effect="bspline" />
    <inkscape:path-effect
       effect="bspline"
       id="path-effect4524"
       is_visible="true"
       weight="33.333333"
       steps="2"
       helper_size="0"
       apply_no_weight="true"
       apply_with_weight="true"
       only_selected="false" />
  </defs>
  <sodipodi:namedview
     pagecolor="#ffffff"
     bordercolor="#666666"
     borderopacity="1"
     objecttolerance="10"
     gridtolerance="10"
     guidetolerance="10"
     inkscape:pageopacity="0"
     inkscape:pageshadow="2"
     inkscape:window-width="1467"
     inkscape:window-height="1124"
     id="namedview4"
     showgrid="false"
     inkscape:zoom="5.347495"
     inkscape:cx="49.430637"
     inkscape:cy="52.498673"
     inkscape:window-x="0"
     inkscape:window-y="28"
     inkscape:window-maximized="0"
     inkscape:current-layer="svg2"
     showguides="false" />
  <path
     style="fill:#daecff;fill-opacity:1;stroke:#1f1f1f;stroke-width:5.3994298;stroke-linecap:round;stroke-linejoin:round;stroke-miterlimit:4;stroke-dasharray:none;stroke-dashoffset:0;stroke-opacity:1"
     id="path825"
     sodipodi:type="arc"
     sodipodi:cx="66.484512"
     sodipodi:cy="72.117561"
     sodipodi:rx="52.300152"
     sodipodi:ry="52.300236"
     sodipodi:start="0"
     sodipodi:end="6.281632"
     sodipodi:open="true"
     d="M 118.78466,72.117561 A 52.300152,52.300236 0 0 1 66.504822,124.41779 52.300152,52.300236 0 0 1 14.184376,72.158181 52.300152,52.300236 0 0 1 66.423584,19.817361 52.300152,52.300236 0 0 1 118.7846,72.036323"
     inkscape:export-xdpi="96"
     inkscape:export-ydpi="96" />
  <path
     style="fill:none;fill-rule:evenodd;stroke:#000000;stroke-width:5.3994298;stroke-linecap:round;stroke-linejoin:miter;stroke-miterlimit:4;stroke-dasharray:none;stroke-opacity:1"
     d="M 65.995561,72.513541 C 74.466907,65.669142 82.937269,58.825539 91.406645,51.982731"
     id="path833"
     inkscape:connector-curvature="0"
     inkscape:path-effect="#path-effect835"
     inkscape:original-d="M 65.995561,72.513541 C 74.466823,65.669038 82.937184,58.825434 91.406645,51.982731"
     sodipodi:nodetypes="cc" />
  <path
     style="fill:#ffffff;fill-opacity:1;stroke:#1f1f1f;stroke-width:1.79980993;stroke-linecap:round;stroke-linejoin:round;stroke-miterlimit:4;stroke-dasharray:none;stroke-dashoffset:0;stroke-opacity:1"
     id="path827"
     sodipodi:type="arc"
     sodipodi:cx="66.484596"
     sodipodi:cy="72.117561"
     sodipodi:rx="5.6662111"
     sodipodi:ry="5.9360309"
     sodipodi:start="0"
     sodipodi:end="6.281632"
     sodipodi:open="true"
     d="m 72.150807,72.117561 a 5.6662111,5.9360309 0 0 1 -5.66401,5.936031 5.6662111,5.9360309 0 0 1 -5.66841,-5.93142 5.6662111,5.9360309 0 0 1 5.659608,-5.940637 5.6662111,5.9360309 0 0 1 5.672806,5.926806" />
  <path
     style="fill:#080808;fill-opacity:1;stroke:none;stroke-width:2.79293108;stroke-linecap:round;stroke-linejoin:round;stroke-miterlimit:4;stroke-dasharray:none;stroke-dashoffset:0;stroke-opacity:1"
     id="path843"
     sodipodi:type="arc"
     sodipodi:cx="66.48465"
     sodipodi:cy="115.84645"
     sodipodi:rx="3.5996199"
     sodipodi:ry="3.5996199"
     sodipodi:start="0"
     sodipodi:end="6.281632"
     sodipodi:open="true"
     d="m 70.08427,115.84645 a 3.5996199,3.5996199 0 0 1 -3.598223,3.59962 3.5996199,3.5996199 0 0 1 -3.601016,-3.59682 3.5996199,3.5996199 0 0 1 3.595425,-3.60242 3.5996199,3.5996199 0 0 1 3.603809,3.59403" />
  <path
     d="m 70.08427,27.160086 a 3.5996199,3.5996199 0 0 1 -3.598223,3.599619 3.5996199,3.5996199 0 0 1 -3.601016,-3.596824 3.5996199,3.5996199 0 0 1 3.595425,-3.602413 3.5996199,3.5996199 0 0 1 3.603809,3.594026"
     sodipodi:open="true"
     sodipodi:end="6.281632"
     sodipodi:start="0"
     sodipodi:ry="3.5996199"
     sodipodi:rx="3.5996199"
     sodipodi:cy="27.160086"
     sodipodi:cx="66.48465"
     sodipodi:type="arc"
     id="path845"
     style="fill:#080808;fill-opacity:1;stroke:none;stroke-width:2.79293108;stroke-linecap:round;stroke-linejoin:round;stroke-miterlimit:4;stroke-dasharray:none;stroke-dashoffset:0;stroke-opacity:1" />
  <path
     style="fill:#080808;fill-opacity:1;stroke:none;stroke-width:2.79293108;stroke-linecap:round;stroke-linejoin:round;stroke-miterlimit:4;stroke-dasharray:none;stroke-dashoffset:0;stroke-opacity:1"
     id="path847"
     sodipodi:type="arc"
     sodipodi:cx="110.69424"
     sodipodi:cy="70.820862"
     sodipodi:rx="3.5996199"
     sodipodi:ry="3.5996199"
     sodipodi:start="0"
     sodipodi:end="6.281632"
     sodipodi:open="true"
     d="m 114.29386,70.820862 a 3.5996199,3.5996199 0 0 1 -3.59823,3.599619 3.5996199,3.5996199 0 0 1 -3.60101,-3.596824 3.5996199,3.5996199 0 0 1 3.59542,-3.602413 3.5996199,3.5996199 0 0 1 3.60381,3.594027" />
  <path
     d="m 32.712729,49.710144 a 3.5996199,3.5996199 0 0 1 -3.598222,3.59962 3.5996199,3.5996199 0 0 1 -3.601016,-3.596824 3.5996199,3.5996199 0 0 1 3.595425,-3.602413 3.5996199,3.5996199 0 0 1 3.603809,3.594026"
     sodipodi:open="true"
     sodipodi:end="6.281632"
     sodipodi:start="0"
     sodipodi:ry="3.5996199"
     sodipodi:rx="3.5996199"
     sodipodi:cy="49.710144"
     sodipodi:cx="29.11311"
     sodipodi:type="arc"
     id="path849"
     style="fill:#080808;fill-opacity:1;stroke:none;stroke-width:2.79293108;stroke-linecap:round;stroke-linejoin:round;stroke-miterlimit:4;stroke-dasharray:none;stroke-dashoffset:0;stroke-opacity:1" />
  <path
     style="fill:#080808;fill-opacity:1;stroke:none;stroke-width:2.79293108;stroke-linecap:round;stroke-linejoin:round;stroke-miterlimit:4;stroke-dasharray:none;stroke-dashoffset:0;stroke-opacity:1"
     id="path851"
     sodipodi:type="arc"
     sodipodi:cx="44.464508"
     sodipodi:cy="33.386642"
     sodipodi:rx="3.5996199"
     sodipodi:ry="3.5996199"
     sodipodi:start="0"
     sodipodi:end="6.281632"
     sodipodi:open="true"
     d="m 48.064128,33.386642 a 3.5996199,3.5996199 0 0 1 -3.598222,3.59962 3.5996199,3.5996199 0 0 1 -3.601017,-3.596824 3.5996199,3.5996199 0 0 1 3.595426,-3.602413 3.5996199,3.5996199 0 0 1 3.603809,3.594026" />
  <path
     d="m 25.682181,70.914276 a 3.5996199,3.5996199 0 0 1 -3.598222,3.59962 3.5996199,3.5996199 0 0 1 -3.601016,-3.596824 3.5996199,3.5996199 0 0 1 3.595425,-3.602413 3.5996199,3.5996199 0 0 1 3.603809,3.594026"
     sodipodi:open="true"
     sodipodi:end="6.281632"
     sodipodi:start="0"
     sodipodi:ry="3.5996199"
     sodipodi:rx="3.5996199"
     sodipodi:cy="70.914276"
     sodipodi:cx="22.082561"
     sodipodi:type="arc"
     id="path853"
     style="fill:#080808;fill-opacity:1;stroke:none;stroke-width:2.79293108;stroke-linecap:round;stroke-linejoin:round;stroke-miterlimit:4;stroke-dasharray:none;stroke-dashoffset:0;stroke-opacity:1" />
  <path
     style="fill:#080808;fill-opacity:1;stroke:none;stroke-width:2.79293108;stroke-linecap:round;stroke-linejoin:round;stroke-miterlimit:4;stroke-dasharray:none;stroke-dashoffset:0;stroke-opacity:1"
     id="path855"
     sodipodi:type="arc"
     sodipodi:cx="29.655401"
     sodipodi:cy="93.96936"
     sodipodi:rx="3.5996199"
     sodipodi:ry="3.5996199"
     sodipodi:start="0"
     sodipodi:end="6.281632"
     sodipodi:open="true"
     d="m 33.255021,93.96936 a 3.5996199,3.5996199 0 0 1 -3.598222,3.59962 3.5996199,3.5996199 0 0 1 -3.601017,-3.596824 3.5996199,3.5996199 0 0 1 3.595426,-3.602413 3.5996199,3.5996199 0 0 1 3.603809,3.594026" />
  <path
     d="m 48.232413,108.27362 a 3.5996199,3.5996199 0 0 1 -3.598222,3.59962 3.5996199,3.5996199 0 0 1 -3.601016,-3.59682 3.5996199,3.5996199 0 0 1 3.595425,-3.60242 3.5996199,3.5996199 0 0 1 3.603809,3.59403"
     sodipodi:open="true"
     sodipodi:end="6.281632"
     sodipodi:start="0"
     sodipodi:ry="3.5996199"
     sodipodi:rx="3.5996199"
     sodipodi:cy="108.27362"
     sodipodi:cx="44.632793"
     sodipodi:type="arc"
     id="path857"
     style="fill:#080808;fill-opacity:1;stroke:none;stroke-width:2.79293108;stroke-linecap:round;stroke-linejoin:round;stroke-miterlimit:4;stroke-dasharray:none;stroke-dashoffset:0;stroke-opacity:1" />
  <path
     style="fill:#080808;fill-opacity:1;stroke:none;stroke-width:2.79293108;stroke-linecap:round;stroke-linejoin:round;stroke-miterlimit:4;stroke-dasharray:none;stroke-dashoffset:0;stroke-opacity:1"
     id="path859"
     sodipodi:type="arc"
     sodipodi:cx="87.713837"
     sodipodi:cy="109.6199"
     sodipodi:rx="3.5996199"
     sodipodi:ry="3.5996199"
     sodipodi:start="0"
     sodipodi:end="6.281632"
     sodipodi:open="true"
     d="m 91.313457,109.6199 a 3.5996199,3.5996199 0 0 1 -3.598223,3.59962 3.5996199,3.5996199 0 0 1 -3.601016,-3.59682 3.5996199,3.5996199 0 0 1 3.595425,-3.60241 3.5996199,3.5996199 0 0 1 3.603809,3.59402" />
  <path
     d="m 108.47856,92.791367 a 3.5996199,3.5996199 0 0 1 -3.59823,3.599619 3.5996199,3.5996199 0 0 1 -3.60101,-3.596824 3.5996199,3.5996199 0 0 1 3.59542,-3.602413 3.5996199,3.5996199 0 0 1 3.60381,3.594026"
     sodipodi:open="true"
     sodipodi:end="6.281632"
     sodipodi:start="0"
     sodipodi:ry="3.5996199"
     sodipodi:rx="3.5996199"
     sodipodi:cy="92.791367"
     sodipodi:cx="104.87894"
     sodipodi:type="arc"
     id="path861"
     style="fill:#080808;fill-opacity:1;stroke:none;stroke-width:2.79293108;stroke-linecap:round;stroke-linejoin:round;stroke-miterlimit:4;stroke-dasharray:none;stroke-dashoffset:0;stroke-opacity:1" />
  <path
     style="fill:#080808;fill-opacity:1;stroke:none;stroke-width:2.79293108;stroke-linecap:round;stroke-linejoin:round;stroke-miterlimit:4;stroke-dasharray:none;stroke-dashoffset:0;stroke-opacity:1"
     id="path863"
     sodipodi:type="arc"
     sodipodi:cx="102.9902"
     sodipodi:cy="51.299404"
     sodipodi:rx="3.5996199"
     sodipodi:ry="3.5996199"
     sodipodi:start="0"
     sodipodi:end="6.281632"
     sodipodi:open="true"
     d="m 106.58982,51.299404 a 3.5996199,3.5996199 0 0 1 -3.59823,3.59962 3.5996199,3.5996199 0 0 1 -3.601013,-3.596824 3.5996199,3.5996199 0 0 1 3.595423,-3.602413 3.5996199,3.5996199 0 0 1 3.60381,3.594026" />
  <path
     d="m 91.145175,34.732929 a 3.5996199,3.5996199 0 0 1 -3.598222,3.59962 3.5996199,3.5996199 0 0 1 -3.601017,-3.596824 3.5996199,3.5996199 0 0 1 3.595426,-3.602413 3.5996199,3.5996199 0 0 1 3.603809,3.594026"
     sodipodi:open="true"
     sodipodi:end="6.281632"
     sodipodi:start="0"
     sodipodi:ry="3.5996199"
     sodipodi:rx="3.5996199"
     sodipodi:cy="34.732929"
     sodipodi:cx="87.545555"
     sodipodi:type="arc"
     id="path865"
     style="fill:#080808;fill-opacity:1;stroke:none;stroke-width:2.79293108;stroke-linecap:round;stroke-linejoin:round;stroke-miterlimit:4;stroke-dasharray:none;stroke-dashoffset:0;stroke-opacity:1" />
  <rect
     style="fill:#daecff;fill-opacity:1;stroke:#000000;stroke-width:4.37427139;stroke-linecap:round;stroke-linejoin:round;stroke-miterlimit:4;stroke-dasharray:none;stroke-dashoffset:0;stroke-opacity:1"
     id="rect871"
     width="38.98978"
     height="10.338387"
     x="46.989758"
     y="2.3070853"
     rx="5.0002728"
     ry="3.8266418"
     inkscape:export-xdpi="96"
     inkscape:export-ydpi="96" />
  <rect
     transform="matrix(-0.7654953,-0.64344149,-0.64344149,0.7654953,0,0)"
     style="fill:#daecff;fill-opacity:1;stroke:#000000;stroke-width:3.8224225;stroke-linecap:round;stroke-linejoin:round;stroke-miterlimit:4;stroke-dasharray:none;stroke-dashoffset:0;stroke-opacity:1"
     id="rect877"
     width="25.409761"
     height="10.577535"
     x="-113.98759"
     y="-50.558582"
     rx="3.2586937"
     ry="3.9151592"
     inkscape:export-xdpi="96"
     inkscape:export-ydpi="96" />
  <rect
     ry="3.9151592"
     rx="3.2586937"
     y="35.298317"
     x="-11.55395"
     height="10.577535"
     width="25.409761"
     id="rect881"
     style="fill:#daecff;fill-opacity:1;stroke:#000000;stroke-width:3.8224225;stroke-linecap:round;stroke-linejoin:round;stroke-miterlimit:4;stroke-dasharray:none;stroke-dashoffset:0;stroke-opacity:1"
     transform="rotate(-40.048924)"
     inkscape:export-xdpi="96"
     inkscape:export-ydpi="96" />
  <rect
     style="fill:#000000;fill-opacity:1;stroke:none;stroke-width:8.53003407;stroke-linecap:round;stroke-linejoin:round;stroke-miterlimit:4;stroke-dasharray:none;stroke-dashoffset:0;stroke-opacity:1"
     id="rect883"
     width="24.497452"
     height="5.7971067"
     x="54.043995"
     y="13.927898" />
</svg>
