<?xml version="1.0" encoding="UTF-8" standalone="no"?>
<svg
   xmlns:dc="http://purl.org/dc/elements/1.1/"
   xmlns:cc="http://creativecommons.org/ns#"
   xmlns:rdf="http://www.w3.org/1999/02/22-rdf-syntax-ns#"
   xmlns:svg="http://www.w3.org/2000/svg"
   xmlns="http://www.w3.org/2000/svg"
   xmlns:sodipodi="http://sodipodi.sourceforge.net/DTD/sodipodi-0.dtd"
   xmlns:inkscape="http://www.inkscape.org/namespaces/inkscape"
   id="レイヤー_1"
   data-name="レイヤー 1"
   viewBox="0 0 756.86 296.87"
   version="1.1"
   sodipodi:docname="hitachi.svg"
   inkscape:export-filename="/home/takashi/samurai-2018-git/viewer/logos/hitachi.png"
   inkscape:export-xdpi="300"
   inkscape:export-ydpi="300"
   inkscape:version="0.92.3 (2405546, 2018-03-11)">
  <metadata
     id="metadata59">
    <rdf:RDF>
      <cc:Work
         rdf:about="">
        <dc:format>image/svg+xml</dc:format>
        <dc:type
           rdf:resource="http://purl.org/dc/dcmitype/StillImage" />
        <dc:title>hitachi</dc:title>
      </cc:Work>
    </rdf:RDF>
  </metadata>
  <sodipodi:namedview
     pagecolor="#ffffff"
     bordercolor="#666666"
     borderopacity="1"
     objecttolerance="10"
     gridtolerance="10"
     guidetolerance="10"
     inkscape:pageopacity="0"
     inkscape:pageshadow="2"
     inkscape:window-width="1920"
     inkscape:window-height="1146"
     id="namedview57"
     showgrid="false"
     inkscape:zoom="0.47432815"
     inkscape:cx="95.925151"
     inkscape:cy="148.435"
     inkscape:window-x="0"
     inkscape:window-y="28"
     inkscape:window-maximized="1"
     inkscape:current-layer="レイヤー_1" />
  <defs
     id="defs4">
    <style
       id="style2">.cls-1{fill:none;}.cls-2{fill:#3e3a39;}.cls-3{fill:#e60027;}</style>
  </defs>
  <title
     id="title6">hitachi</title>
  <rect
     class="cls-1"
     width="756.86"
     height="296.87"
     id="rect8" />
  <path
     class="cls-2"
     d="M548,67.51v33.72h45.11c0,.12,0-33.72,0-33.72h22.34s.07,84.22,0,84.31-22.32,0-22.34,0v-37.1c0,.11-45.11,0-45.11,0s0,37.12,0,37.1H525.68s.12-84.31,0-84.31Z"
     id="path10" />
  <path
     class="cls-2"
     d="M336.05,67.51c0,.25,0,14.35,0,14.35H301.91v70H279.57v-70H245.44s0-14.33,0-14.35S336.05,67.51,336.05,67.51Z"
     id="path12" />
  <path
     class="cls-2"
     d="M422.86,151.82c.07,0-25,0-24.87,0s-7.3-18.13-7.3-18.13H348.83s-7.2,18.15-7.3,18.13-24.87,0-24.87,0l39.4-84.31c0,.06,27.39,0,27.39,0Zm-53.11-70L354.21,120.2h31.1L369.75,81.86"
     id="path14" />
  <rect
     class="cls-2"
     x="633.13"
     y="67.51"
     width="22.35"
     height="84.31"
     id="rect16" />
  <path
     class="cls-2"
     d="M130,67.51s0,34,0,33.72h45.08c0,.12,0-33.72,0-33.72H197.4s.07,84.22,0,84.31-22.32,0-22.34,0v-37.1c0,.11-45.08,0-45.08,0s0,37.12,0,37.1H107.63s.13-84.31,0-84.31Z"
     id="path18" />
  <rect
     class="cls-2"
     x="215.11"
     y="67.51"
     width="22.32"
     height="84.31"
     id="rect20" />
  <path
     class="cls-2"
     d="M422.06,128.45a54.39,54.39,0,0,1-3-17.95c0-8.85,1.57-17.43,5.81-24.55A37.61,37.61,0,0,1,444,69.9,70.08,70.08,0,0,1,497,71.36,27.28,27.28,0,0,1,512.9,90.84a44.61,44.61,0,0,1,.8,5.34H490.26A20,20,0,0,0,489,89.69a16.26,16.26,0,0,0-10.47-9.75,33.36,33.36,0,0,0-9.78-1.46,33,33,0,0,0-11.06,1.91,20.12,20.12,0,0,0-12.19,12.37,53.44,53.44,0,0,0-3.06,17.74,55.28,55.28,0,0,0,2.13,14.82,20.08,20.08,0,0,0,12.2,13.31,34,34,0,0,0,12,2.22,33.27,33.27,0,0,0,10.32-1.61,16,16,0,0,0,9.77-8.75,22.27,22.27,0,0,0,1.83-9h23.53a44.08,44.08,0,0,1-1.13,8A27.06,27.06,0,0,1,497.5,148a73.83,73.83,0,0,1-28.71,5.87,75.64,75.64,0,0,1-22.66-3.49C435.24,147,425.81,139.15,422.06,128.45Z"
     id="path22" />
  <path
     class="cls-2"
     d="M87.63,175.41l-19.88,1.81v2.94l.63.08c8,.94,8,.94,8,6.71v41.69h12V175.33Z"
     id="path24" />
  <path
     class="cls-2"
     d="M129.83,191.17c-7.44,0-11.85,5-13.88,8.05V191l-.82.13L99,193.7v2.82h.7c5.11.14,6.21,1.22,6.21,6v26.08H116v-19.2c0-5.1,4.81-11.69,9.91-11.69,4.83,0,5.07,4,5.07,10.56v20.33H141V202.56C141,195.21,137,191.17,129.83,191.17Z"
     id="path26" />
  <path
     class="cls-2"
     d="M169.18,205.73c-4-1.94-7.38-3.62-7.38-6.36,0-3.11,3.73-3.45,5.34-3.45,4.13,0,7.84,2.28,9.41,3.25l1.58,1v-7.54l-1.24-.27a41.46,41.46,0,0,0-9.15-1.15c-9.47,0-15.13,4.06-15.13,10.87,0,6.11,5.88,9,11.06,11.53,4,2,7.85,3.84,7.85,6.78,0,2.77-2.45,4.36-6.71,4.36-4.69,0-8.66-2.39-11-3.83l-1.08-.66V228l.74.16a46.52,46.52,0,0,0,11,1.34c10.18,0,16.26-4.18,16.26-11.17S174.59,208.38,169.18,205.73Z"
     id="path28" />
  <path
     class="cls-2"
     d="M213.41,191.17c-3.73,0-7.36,1.78-10.6,5.18V191l-.83.13-16,2.53v2.81l.69,0c5,.14,6,1.16,6,6v41.53h10.06V225.17c1.85,2.24,4.78,4.31,10.34,4.31,10.52,0,16.09-6.82,16.09-19.72C229.15,197.93,223.41,191.17,213.41,191.17Zm-2.85,5.51c6.87,0,7.66,7.47,7.66,13.08,0,9.55-2.48,14.2-7.58,14.2-6.54,0-7.92-6.12-7.92-11.25v-3.12C202.72,205.72,203.48,196.68,210.56,196.68Z"
     id="path30" />
  <path
     class="cls-2"
     d="M236.18,193.7v2.81l.69,0c5,.14,6,1.16,6,6v26.08h10.06V191l-.82.13Z"
     id="path32" />
  <path
     class="cls-2"
     d="M248,186.61c3.49,0,6.32-2.47,6.32-5.49s-2.8-5.41-6.24-5.41-6.15,2.43-6.15,5.41S244.6,186.61,248,186.61Z"
     id="path34" />
  <path
     class="cls-2"
     d="M295,199.46v-7.82l-.6-.09a32.32,32.32,0,0,0-4.78-.38c-5.7,0-8.69,4.16-10.25,7.44V191l-.82.13-16.06,2.53v2.82h.69c5.09.14,6.13,1.16,6.13,6v26.08H279.4V209.83c0-3.17,1-10.57,10.51-10.57a13,13,0,0,1,3.49.68l1.63.46Z"
     id="path36" />
  <path
     class="cls-2"
     d="M334.83,206.35c0-10.08-5.61-15.18-16.69-15.18-12.51,0-18.85,6-18.85,17.9,0,12.78,8.17,20.41,21.87,20.41a39.15,39.15,0,0,0,12.3-2.06l.59-.18v-4.87l-1,.34a24.43,24.43,0,0,1-7.87,1.25c-10.74,0-14.75-8.94-15-16.9h24.59Zm-17-11.19c5.4,0,6.79,3.89,6.94,7.44H310.26C310.52,200,312.15,195.16,317.79,195.16Z"
     id="path38" />
  <path
     class="cls-2"
     d="M426.55,191.17c-7.4,0-11.66,4.62-13.79,8V174.1l-.8.1-16,2V179l.68,0c5,.22,6.05,1.31,6.05,6.18v43.43h10.07V209.91c0-6.85,5.09-12.16,9.47-12.16,5.59,0,5.59,4.2,5.59,7.92v23h10.07V204.53C437.89,200.52,437.89,191.17,426.55,191.17Z"
     id="path40" />
  <path
     class="cls-2"
     d="M483.11,206.35c0-10.08-5.62-15.18-16.68-15.18-12.51,0-18.85,6-18.85,17.9,0,12.78,8.17,20.41,21.87,20.41a39.21,39.21,0,0,0,12.3-2.06l.59-.18v-4.87l-1,.34A24.5,24.5,0,0,1,473.5,224c-10.74,0-14.75-8.94-15-16.9h24.58Zm-17-11.19c5.4,0,6.78,3.89,6.93,7.44H458.55C458.8,200,460.43,195.16,466.08,195.16Z"
     id="path42" />
  <path
     class="cls-2"
     d="M370.14,180.62V192h-6.73v4.46h6.73V219c0,9.7,6.26,10.48,13.83,10.48a37.25,37.25,0,0,0,5.91-.62l.6-.08v-4.54l-.87.19a14.39,14.39,0,0,1-3,.29c-6.05,0-6.37-1.78-6.37-6.93V196.48h11.32V192H380.2v-11.4Z"
     id="path44" />
  <path
     class="cls-2"
     d="M568.17,176.23H558.09V216l-26.28-39.81H508.57v3l2,.33c6.13,1,6.63,1.12,6.63,7.08v42H528V187l27.57,41.69h13.31V176.23Z"
     id="path46" />
  <path
     class="cls-2"
     d="M613.9,206.37c0-10.08-5.62-15.19-16.69-15.19-12.51,0-18.84,6-18.84,17.92,0,12.76,8.17,20.4,21.86,20.4a39.08,39.08,0,0,0,12.31-2.05l.58-.19V222.4l-1,.34a25.22,25.22,0,0,1-7.88,1.24c-10.75,0-14.75-8.94-15-16.89H613.9Zm-17-11.18c5.39,0,6.78,3.89,6.93,7.44H589.33C589.59,200,591.22,195.19,596.87,195.19Z"
     id="path48" />
  <path
     class="cls-2"
     d="M669.38,180.6V192h-6.73v4.46h6.73V219c0,9.7,6.27,10.48,13.84,10.48a37,37,0,0,0,5.89-.62l.61-.08v-4.54l-.87.19a14.32,14.32,0,0,1-3,.29c-6.06,0-6.36-1.78-6.36-6.93V196.48h11.3V192h-11.3V180.6Z"
     id="path50" />
  <path
     class="cls-2"
     d="M649.11,204l10.34-12H648.82L639,203.34,630.34,192H614.93v2.9l.67,0c5.25.36,6.44,1.31,9.67,5.56l6.3,8.38-10.3,11.9h10.65l4.6-5.32,9.93,13.19h11.93L639.48,204Z"
     id="path52" />
  <polygon
     class="cls-3"
     points="669.24 180.62 658.6 180.62 671.49 165.73 682.13 165.73 669.24 180.62"
     id="polygon54" />
</svg>
