<?xml version="1.0" encoding="UTF-8" standalone="no"?>
<svg
   xmlns:dc="http://purl.org/dc/elements/1.1/"
   xmlns:cc="http://creativecommons.org/ns#"
   xmlns:rdf="http://www.w3.org/1999/02/22-rdf-syntax-ns#"
   xmlns:svg="http://www.w3.org/2000/svg"
   xmlns="http://www.w3.org/2000/svg"
   xmlns:sodipodi="http://sodipodi.sourceforge.net/DTD/sodipodi-0.dtd"
   xmlns:inkscape="http://www.inkscape.org/namespaces/inkscape"
   viewBox="0 0 113.44 59.11"
   version="1.1"
   id="svg66"
   sodipodi:docname="jprs.svg"
   inkscape:export-filename="/home/takashi/samurai-2018-git/viewer/logos/jprs.png"
   inkscape:export-xdpi="300"
   inkscape:export-ydpi="300"
   inkscape:version="0.92.3 (2405546, 2018-03-11)">
  <metadata
     id="metadata70">
    <rdf:RDF>
      <cc:Work
         rdf:about="">
        <dc:format>image/svg+xml</dc:format>
        <dc:type
           rdf:resource="http://purl.org/dc/dcmitype/StillImage" />
        <dc:title>アセット 1</dc:title>
      </cc:Work>
    </rdf:RDF>
  </metadata>
  <sodipodi:namedview
     pagecolor="#ffffff"
     bordercolor="#666666"
     borderopacity="1"
     objecttolerance="10"
     gridtolerance="10"
     guidetolerance="10"
     inkscape:pageopacity="0"
     inkscape:pageshadow="2"
     inkscape:window-width="1920"
     inkscape:window-height="1146"
     id="namedview68"
     showgrid="false"
     inkscape:zoom="3.1646685"
     inkscape:cx="14.377493"
     inkscape:cy="29.555"
     inkscape:window-x="0"
     inkscape:window-y="28"
     inkscape:window-maximized="1"
     inkscape:current-layer="svg66" />
  <defs
     id="defs4">
    <style
       id="style2">.cls-1{fill:#231815;}.cls-2{fill:#d0121b;}</style>
  </defs>
  <title
     id="title6">アセット 1</title>
  <g
     id="レイヤー_2"
     data-name="レイヤー 2">
    <g
       id="レイヤー_1-2"
       data-name="レイヤー 1">
      <path
         class="cls-1"
         d="M12.31,12.78,7.26,16.15V41c0,2.46.13,6.61-1.56,9.59s-5.7,3-5.7,3L.39,55a12.27,12.27,0,0,0,7.78-2.46c2.1-1.67,4.15-4.28,4.15-11.14Z"
         id="path8" />
      <circle
         class="cls-2"
         cx="9.85"
         cy="5.13"
         r="5.13"
         id="circle10" />
      <path
         class="cls-1"
         d="M26.83,13l-5.05,3.24V47.9a17.31,17.31,0,0,1,2.59-.26,14.68,14.68,0,0,1,2.46.26Z"
         id="path12" />
      <path
         class="cls-1"
         d="M26.44,29.63h7c8.55,0,12.88-4.24,13.74-8.94.78-4.28.78-7.78-1.94-10.37S34.73,7.6,34.73,7.6L31.62,9.67h3.63a9.54,9.54,0,0,1,5.05,2.07c1.46,1.38,1.81,3.82,1.81,6.74,0,6.74-6.74,8.68-9.85,8.68H26.05Z"
         id="path14" />
      <path
         class="cls-1"
         d="M78.15,48h6.74L69.44,28.1c7.11-.62,10.78-4.26,11.56-8.26s.78-7.27-1.94-9.7S68.56,7.6,68.56,7.6L65.45,9.54h3.63a7.66,7.66,0,0,1,5.05,1.94c1.46,1.29,1.81,3.58,1.81,6.3,0,6.3-7.13,8.12-10.11,8.12H60.65V13L55.6,16.28V47.9a17.31,17.31,0,0,1,2.59-.26,14.65,14.65,0,0,1,2.46.26V28.2h2.81Z"
         id="path16" />
      <path
         class="cls-1"
         d="M111.59,29.89c-1.63-2-4.21-3.47-7.91-4.93-3.39-1.33-7.06-3-8.29-5.44C94,16.68,95.26,13,95.26,13l-5.19,3.5s-.78,8.17,6.48,10.76,14.65,5.57,11.15,13.87c-1.43,3.39-4.41,4.93-8.16,4.93-6,0-9.2-6.22-9.2-6.22L89,45.31a21.11,21.11,0,0,0,11,3.37c6.87,0,10.76-4.28,12.05-7.78C112.83,38.94,115,34,111.59,29.89Z"
         id="path18" />
      <path
         class="cls-1"
         d="M106.92,10.7a14,14,0,0,1,2.85,3.89l1.68-5.19a16.2,16.2,0,0,0-3-1.81,11.36,11.36,0,0,0-3.5-.91l-3.76,2.46S104.85,8.63,106.92,10.7Z"
         id="path20" />
      <path
         class="cls-1"
         d="M12.59,53.51v3.91c0,1.2-.64,1.69-1.37,1.69a2.11,2.11,0,0,1-.73-.13v-.87a1.14,1.14,0,0,0,.47.1c.49,0,.62-.36.62-.8v-3.9Z"
         id="path22" />
      <path
         class="cls-1"
         d="M15.36,56.93l.76-2.58h0l.7,2.58ZM17.43,59h1L16.7,53.51H15.59L13.74,59h1l.4-1.33H17Z"
         id="path24" />
      <path
         class="cls-1"
         d="M20.79,56.1V54.28h.38a.91.91,0,1,1,0,1.81Zm-1,2.94h1V56.87h.57a1.68,1.68,0,1,0,0-3.36H19.77Z"
         id="path26" />
      <path
         class="cls-1"
         d="M25.13,56.93l.76-2.58h0l.7,2.58ZM27.21,59h1l-1.78-5.52H25.36L23.51,59h1l.4-1.33h1.9Z"
         id="path28" />
      <path
         class="cls-1"
         d="M29.83,53.51H31l1.84,4.34h0V53.51h.92V59H32.59l-1.83-4.3h0V59h-.92Z"
         id="path30" />
      <path
         class="cls-1"
         d="M39.41,55.91V54.28h.41c.57,0,.9.16.9.79a.8.8,0,0,1-.9.84ZM38.4,59h1V56.66h.23a.72.72,0,0,1,.77.58L41,59H42l-.72-2.11c-.17-.51-.4-.61-.61-.64v0A1.24,1.24,0,0,0,41.77,55c0-1-.67-1.46-1.65-1.46H38.4Z"
         id="path32" />
      <path
         class="cls-1"
         d="M43.56,53.51h2.9v.81H44.57v1.47h1.79v.81H44.57v1.63h2V59h-3Z"
         id="path34" />
      <path
         class="cls-1"
         d="M50.43,55.94h1.79v2.89a3.26,3.26,0,0,1-1.5.29,2.84,2.84,0,0,1,0-5.68,3.62,3.62,0,0,1,1.35.24l-.05.91a2.45,2.45,0,0,0-1.27-.34c-1.08,0-1.65.89-1.65,2s.56,2,1.6,2a1.59,1.59,0,0,0,.59-.1V56.71h-.84Z"
         id="path36" />
      <path
         class="cls-1"
         d="M54.07,53.51h1V59h-1Z"
         id="path38" />
      <path
         class="cls-1"
         d="M56.91,58a2.26,2.26,0,0,0,1.17.34.76.76,0,0,0,.84-.8c0-.4-.23-.57-.72-.84l-.52-.29a1.55,1.55,0,0,1,.84-3,3.62,3.62,0,0,1,1.15.2l0,.85a2.62,2.62,0,0,0-1-.24c-.51,0-.77.27-.77.65s.28.57.59.74L59,56a1.5,1.5,0,0,1,1,1.49,1.63,1.63,0,0,1-1.85,1.66,2.53,2.53,0,0,1-1.26-.24Z"
         id="path40" />
      <path
         class="cls-1"
         d="M62.46,54.32H61.23v-.81H64.7v.81H63.48V59h-1Z"
         id="path42" />
      <path
         class="cls-1"
         d="M67,55.91V54.28h.41c.57,0,.9.16.9.79a.8.8,0,0,1-.9.84ZM66,59h1V56.66h.23a.72.72,0,0,1,.77.58l.54,1.8H69.6l-.72-2.11c-.17-.51-.4-.61-.61-.64v0A1.24,1.24,0,0,0,69.33,55c0-1-.66-1.46-1.65-1.46H66Z"
         id="path44" />
      <path
         class="cls-1"
         d="M71.79,56.82l-1.63-3.31h1.09l1.08,2.21,1-2.21h1.09l-1.63,3.33V59h-1Z"
         id="path46" />
      <path
         class="cls-1"
         d="M78.18,58a2.25,2.25,0,0,0,1.17.34.77.77,0,0,0,.84-.8c0-.4-.23-.57-.72-.84L79,56.38a1.55,1.55,0,0,1,.84-3,3.64,3.64,0,0,1,1.16.2l0,.85a2.62,2.62,0,0,0-1-.24c-.51,0-.77.27-.77.65s.28.57.58.74l.59.33a1.5,1.5,0,0,1,1,1.49,1.63,1.63,0,0,1-1.85,1.66,2.54,2.54,0,0,1-1.26-.24Z"
         id="path48" />
      <path
         class="cls-1"
         d="M110.12,58a2.25,2.25,0,0,0,1.17.34.77.77,0,0,0,.84-.8c0-.4-.23-.57-.72-.84l-.51-.29a1.55,1.55,0,0,1,.84-3,3.64,3.64,0,0,1,1.16.2l0,.85a2.62,2.62,0,0,0-1-.24c-.51,0-.77.27-.77.65s.28.57.58.74l.59.33a1.5,1.5,0,0,1,1,1.49,1.63,1.63,0,0,1-1.85,1.66,2.54,2.54,0,0,1-1.26-.24Z"
         id="path50" />
      <path
         class="cls-1"
         d="M82.92,53.51h2.9v.81H83.94v1.47h1.79v.81H83.94v1.63h2V59h-3Z"
         id="path52" />
      <path
         class="cls-1"
         d="M88.56,55.91V54.28H89c.57,0,.9.16.9.79a.8.8,0,0,1-.9.84Zm-1,3.12h1V56.66h.23a.72.72,0,0,1,.77.58L90.1,59h1.08l-.72-2.11c-.17-.51-.4-.61-.61-.64v0A1.24,1.24,0,0,0,90.92,55c0-1-.67-1.46-1.65-1.46H87.54Z"
         id="path54" />
      <path
         class="cls-1"
         d="M92,53.51h1.09l1.12,4.26h0l1.15-4.26h1L94.72,59H93.65Z"
         id="path56" />
      <path
         class="cls-1"
         d="M97.77,53.51h1V59h-1Z"
         id="path58" />
      <path
         class="cls-1"
         d="M104.19,58.91a3,3,0,0,1-1.2.2c-1.68,0-2.54-1.23-2.54-2.84s.86-2.84,2.51-2.84a3.53,3.53,0,0,1,1.23.23l-.05.91a2.13,2.13,0,0,0-1-.3c-.84,0-1.56.57-1.56,2s.72,2,1.56,2a1.72,1.72,0,0,0,1-.29Z"
         id="path60" />
      <path
         class="cls-1"
         d="M105.79,53.51h2.9v.81H106.8v1.47h1.79v.81H106.8v1.63h2V59h-3Z"
         id="path62" />
    </g>
  </g>
</svg>
