<svg xmlns="http://www.w3.org/2000/svg" viewBox="0 0 354.33 85.04"><defs><style>.cls-1{fill:#ca2420;}.cls-2{fill:none;}</style></defs><title>アセット 1</title><g id="レイヤー_2" data-name="レイヤー 2"><g id="レイヤ_1" data-name="レイヤ− 1"><path class="cls-1" d="M306.08,16.23,285,68.81h9.13l5.77-14.5h19.23L325,68.81h14.83L318.45,16.23ZM302.9,46.8l6.56-16.48,6.65,16.48Zm-49.79,22H239.66V16.23h25.71c9.51,0,16.35,6.48,16.35,15,0,8.12-3.89,12.11-10.76,14.43l12.67,23.14H269.3l-13.9-26c9.09-.5,12.93-3,12.93-9.59,0-5.75-2.89-9.59-9.42-9.59h-5.8ZM221.06,16.23h9.82V50.67c0,14.11-8.39,20.2-21.84,20.2s-21.84-6.09-21.84-20.2V16.23h13.53V50.67c0,8,2.58,11.91,10.16,11.91s10.17-3.93,10.17-11.91ZM151,68.81,137.62,33.26l-13.2,35.55H115l19.52-52.58h10.6l20.12,52.58Zm14.85-52.58h-11l-3.37,9,4.8,12.57,1.7-4.56,13,35.55h15ZM141.29,50.45,134.5,68.81h8.63l2.54-6.93ZM91.08,14.18c-17.36,0-26,13.12-26,28.34s8.61,28.35,26,28.35,26-13.13,26-28.35S108.45,14.18,91.08,14.18Zm0,49.49c-6.53,0-12.89-6.48-12.89-21.15s6.36-21.15,12.89-21.15S104,27.86,104,42.52,97.61,63.67,91.08,63.67ZM27.3,16.23l23.2,29v-29h8.63V68.81H51.55L23.6,33.48V68.81H14.51V16.23Z"/><rect class="cls-2" width="354.33" height="85.04"/></g></g></svg>